<?xml version="1.0" encoding="UTF-8"?>
<svg width="222px" height="191px" viewBox="0 0 222 191" version="1.1" xmlns="http://www.w3.org/2000/svg" xmlns:xlink="http://www.w3.org/1999/xlink">
    <!-- Generator: Sketch 62 (91390) - https://sketch.com -->
    <title>heart</title>
    <desc>Created with Sketch.</desc>
    <g id="Page-1" stroke="none" stroke-width="1" fill="none" fill-rule="evenodd">
        <g id="Artboard" transform="translate(-10.000000, -11.000000)" fill-rule="nonzero" stroke="#5F266D" stroke-width="7.06799997">
            <g id="heart" transform="translate(14.000000, 15.000000)">
                <g id="Group">
                    <path d="M207.2744,31.6858438 C207.273516,31.6831933 207.272633,31.6805428 207.270866,31.6787758 C204.540851,26.4387374 201.028939,21.6607694 196.830547,17.4773969 C185.861011,6.52376397 171.304465,0.490342498 155.844098,0.490342498 C140.388149,0.490342498 125.843089,6.52376397 114.886805,17.4809309 L106.904383,25.4748389 L98.9078245,17.4782804 C81.8545076,0.425846998 55.6790532,-4.27613998 33.7850398,5.77102197 C27.5678504,8.59557146 21.9090329,12.5350979 16.9649669,17.4791639 C12.7868954,21.6572354 9.27586645,26.4316694 6.52994847,31.6708243 C6.52906497,31.6725913 6.52818147,31.6752418 6.52729797,31.6770088 C6.52641447,31.6787758 6.52464747,31.6805428 6.52376397,31.6823098 C1.53817349,41.2797703 -0.658207497,52.0584702 0.169631999,62.8539567 C0.169631999,62.8583742 0.168748499,62.8636752 0.169631999,62.8680927 C1.04959799,74.2855631 5.21264997,85.0616126 12.2064359,94.033555 C12.2073194,94.035322 12.2082029,94.0362055 12.2090864,94.0379725 C12.2117369,94.040623 12.2135039,94.044157 12.2161544,94.0468075 C12.2188049,94.0503415 12.2223389,94.054759 12.2249894,94.058293 C12.2258729,94.0591765 12.2267564,94.06006 12.2276399,94.0609435 C13.6014824,95.846497 15.1944329,97.648837 16.9685009,99.422905 L41.2426633,123.670562 L70.5218532,152.948869 C70.5236202,152.950636 70.5253872,152.953286 70.5271542,152.955053 L96.5276755,178.955575 C99.274477,181.742134 102.960439,183.276773 106.90615,183.276773 C110.821822,183.276773 114.498949,181.745668 117.250168,178.974128 L143.261291,152.963005 C143.263058,152.961238 143.264825,152.960354 143.265709,152.959471 L172.569637,123.673213 C172.57052,123.672329 172.571404,123.672329 172.572287,123.671446 L196.834081,99.419371 C198.601081,97.6514875 200.193148,95.8509145 201.56699,94.0662445 C201.567874,94.0644775 201.569641,94.063594 201.571408,94.061827 C201.575825,94.0556425 201.580243,94.049458 201.58466,94.0432735 C201.586427,94.0415065 201.587311,94.0397395 201.589078,94.0379725 C201.589961,94.037089 201.589961,94.0362055 201.590845,94.035322 C208.593465,85.0748651 212.758284,74.3085341 213.634716,62.8963647 C213.6356,62.8857627 213.639134,62.8751607 213.640017,62.8645587 C214.459022,52.0328487 212.258223,41.2523818 207.2744,31.6858438 Z" id="Shape"></path>
                </g>
            </g>
        </g>
    </g>
</svg>