<?xml version="1.0" encoding="UTF-8"?>
<svg width="250px" height="216px" viewBox="0 0 250 216" version="1.1" xmlns="http://www.w3.org/2000/svg" xmlns:xlink="http://www.w3.org/1999/xlink">
    <!-- Generator: Sketch 62 (91390) - https://sketch.com -->
    <title>Shape</title>
    <desc>Created with Sketch.</desc>
    <g id="Page-1" stroke="none" stroke-width="1" fill="none" fill-rule="evenodd">
        <g id="heart" transform="translate(4.000000, 4.000000)" fill-rule="nonzero" stroke="#5F266D" stroke-width="8">
            <g id="Group">
                <path d="M234.606,35.864 C234.605,35.861 234.604,35.858 234.602,35.856 C231.512,29.925 227.537,24.517 222.785,19.782 C210.369,7.384 193.893,0.555 176.394,0.555 C158.9,0.555 142.437,7.384 130.036,19.786 L121.001,28.834 L111.95,19.783 C92.648,0.482 63.021,-4.84 38.24,6.532 C31.203,9.729 24.798,14.188 19.202,19.784 C14.473,24.513 10.499,29.917 7.391,35.847 C7.39,35.849 7.389,35.852 7.388,35.854 C7.387,35.856 7.385,35.858 7.384,35.86 C1.741,46.723 -0.745,58.923 0.192,71.142 C0.192,71.147 0.191,71.153 0.192,71.158 C1.188,84.081 5.9,96.278 13.816,106.433 C13.817,106.435 13.818,106.436 13.819,106.438 C13.822,106.441 13.824,106.445 13.827,106.448 C13.83,106.452 13.834,106.457 13.837,106.461 C13.838,106.462 13.839,106.463 13.84,106.464 C15.395,108.485 17.198,110.525 19.206,112.533 L46.681,139.978 L79.821,173.117 C79.823,173.119 79.825,173.122 79.827,173.124 L109.256,202.553 C112.365,205.707 116.537,207.444 121.003,207.444 C125.435,207.444 129.597,205.711 132.711,202.574 L162.152,173.133 C162.154,173.131 162.156,173.13 162.157,173.129 L195.325,139.981 C195.326,139.98 195.327,139.98 195.328,139.979 L222.789,112.529 C224.789,110.528 226.591,108.49 228.146,106.47 C228.147,106.468 228.149,106.467 228.151,106.465 C228.156,106.458 228.161,106.451 228.166,106.444 C228.168,106.442 228.169,106.44 228.171,106.438 C228.172,106.437 228.172,106.436 228.173,106.435 C236.099,96.293 240.813,84.107 241.805,71.19 C241.806,71.178 241.81,71.166 241.811,71.154 C242.738,58.894 240.247,46.692 234.606,35.864 Z" id="Shape"></path>
            </g>
        </g>
    </g>
</svg>